<?xml version="1.0" standalone="no"?>
<!DOCTYPE svg PUBLIC "-//W3C//DTD SVG 20010904//EN"
 "http://www.w3.org/TR/2001/REC-SVG-20010904/DTD/svg10.dtd">
<svg version="1.0" xmlns="http://www.w3.org/2000/svg"
 width="400.000000pt" height="400.000000pt" viewBox="0 0 400.000000 400.000000"
 preserveAspectRatio="xMidYMid meet">

<g transform="translate(0.000000,400.000000) scale(0.100000,-0.100000)"
fill="#000000" stroke="none">
<path d="M2071 3635 c-2 -311 -79 -572 -254 -868 -74 -124 -153 -225 -262
-332 -235 -233 -498 -364 -817 -410 -89 -12 -49 -22 119 -29 92 -4 210 -14
262 -22 195 -29 376 -97 463 -174 53 -46 58 -48 58 -19 0 40 -106 165 -170
199 -47 25 -163 59 -223 66 -34 4 -69 10 -77 15 -18 9 -21 8 110 39 428 99
712 380 809 800 46 200 52 460 15 707 -24 159 -33 166 -33 28z"/>
<path d="M2320 3055 c-4 -391 -70 -568 -351 -945 -154 -208 -203 -284 -246
-385 -81 -188 -108 -364 -92 -587 7 -104 39 -292 52 -304 3 -3 5 64 6 150 0
226 27 357 110 530 62 131 104 197 239 384 61 84 133 190 160 235 143 238 198
523 157 822 -22 161 -33 195 -35 100z"/>
<path d="M2360 2245 c0 -29 41 -96 83 -139 62 -61 166 -112 277 -133 51 -10
95 -24 97 -30 2 -6 -14 -14 -39 -18 -80 -13 -233 -67 -328 -116 -256 -131
-440 -359 -515 -639 -36 -135 -50 -349 -36 -528 11 -130 54 -379 69 -394 4 -4
7 91 7 210 0 239 6 278 71 478 96 297 313 594 576 791 169 127 366 217 567
259 62 13 116 26 119 29 3 3 -46 5 -109 5 -133 0 -332 22 -439 49 -138 35
-280 97 -337 146 -56 49 -63 53 -63 30z"/>
</g>
</svg>
