<svg version="1.1" xmlns="http://www.w3.org/2000/svg" width="438px" height="306px" transform="rotate(0) scale(1, 1)">
<path d="M0 0 C3.28468078 0.61587765 5.32106017 1.78138513 8 3.75 C27.20756655 16.80489889 52.43412289 18.60715364 75 18 C75.495 19.485 75.495 19.485 76 21 C75.16339844 21.08636719 74.32679688 21.17273438 73.46484375 21.26171875 C51.27186119 23.9406059 28.7670701 33.8901675 13 50 C11.94847031 50.84713399 10.88709051 51.68231673 9.8125 52.5 C-10.02386484 69.36736446 -23.32897623 98.85330569 -25.81640625 124.36889648 C-26.22744562 130.25954977 -26.38507903 136.16107141 -26.5625 142.0625 C-26.60579628 143.41863016 -26.64941366 144.77475011 -26.69335938 146.13085938 C-26.7987211 149.42048671 -26.90084952 152.71018059 -27 156 C-27.66 156 -28.32 156 -29 156 C-29.63137175 153.58484982 -30.25508812 151.168096 -30.875 148.75 C-31.04902344 148.08742188 -31.22304687 147.42484375 -31.40234375 146.7421875 C-34.29421374 135.38892013 -35.36204638 124.46664254 -35.3125 112.75 C-35.31067719 112.06779388 -35.30885437 111.38558777 -35.30697632 110.68270874 C-35.20048456 87.01344156 -29.51449599 66.15422554 -12.7109375 48.59375 C-1.11527805 37.49934384 13.33740966 29.6943702 29 26 C29 25.34 29 24.68 29 24 C28.39414062 23.84144531 27.78828125 23.68289062 27.1640625 23.51953125 C15.88502889 20.3787542 6.98914967 16.38636671 0.8125 6.00390625 C0 4 0 4 0 0 Z M31 24 C31 24.33 31 24.66 31 25 C32.65 25 34.3 25 36 25 C36 24.67 36 24.34 36 24 C34.35 24 32.7 24 31 24 Z " fill="#000000" transform="translate(241,127)"/>
<path d="M0 0 C0.99 0 1.98 0 3 0 C8.83298117 30.85584988 11.58367017 64.67739381 -5.1875 92.75 C-16.58520736 109.40818769 -33.8901859 123.58257222 -54 128 C-55.32 128 -56.64 128 -58 128 C-58.33 128.66 -58.66 129.32 -59 130 C-56.40068247 131.05018131 -53.79888187 132.07406695 -51.16796875 133.04296875 C-42.2849123 136.45415557 -35.40086307 141.00672265 -30 149 C-29.25 151.3125 -29.25 151.3125 -29 153 C-33.28687642 153 -33.61610107 152.81944116 -36.75 150.375 C-56.62107975 136.61809863 -82.87361562 137.00157437 -106 136 C-105.505 135.01 -105.505 135.01 -105 134 C-102.96202302 133.58856741 -100.92041206 133.19059678 -98.86767578 132.8605957 C-81.88862871 130.11626735 -66.73330381 123.49926019 -52.6171875 113.75 C-50 112 -50 112 -47 111 C-47 110.34 -47 109.68 -47 109 C-45.53125 107.5546875 -45.53125 107.5546875 -43.5 105.875 C-19.58417775 85.35774197 -3.52661063 54.55165259 -1 23 C-0.53028669 15.33935531 -0.24386232 7.67075855 0 0 Z " fill="#000000" transform="translate(218,12)"/>
<path d="M0 0 C0.66 0.33 1.32 0.66 2 1 C2.63288212 3.57695065 3.13603341 6.07468887 3.5625 8.6875 C3.69108398 9.45771484 3.81966797 10.22792969 3.95214844 11.02148438 C8.29291064 38.04802953 5.29382319 64.29083876 -11 87 C-13.8944252 90.92064725 -16.81220674 94.82396295 -19.72436523 98.73144531 C-35.0847437 119.5185689 -45.56340976 141.89977614 -45.125 168.1875 C-45.11597656 169.23486328 -45.10695312 170.28222656 -45.09765625 171.36132812 C-45.07440075 173.90780514 -45.04172569 176.45377031 -45 179 C-45.99 179.33 -46.98 179.66 -48 180 C-50.38330341 170.02338107 -52.65156356 160.29339311 -53 150 C-53.07734375 148.61361328 -53.07734375 148.61361328 -53.15625 147.19921875 C-54.01850852 120.64884197 -41.43202399 99.48201146 -26 79 C-9.23668061 56.68967927 -0.23698592 34.80571521 -0.9921875 6.59765625 C-1 3 -1 3 0 0 Z " fill="#000000" transform="translate(238,58)"/>
<path d="M0 0 C0.66 0 1.32 0 2 0 C1.17599482 9.06405695 -2.1728446 17.62297449 -5.99609375 25.82421875 C-6.71096448 27.37356893 -7.38670637 28.94122871 -8.03515625 30.51953125 C-8.37417969 31.33808594 -8.71320313 32.15664062 -9.0625 33 C-9.36285156 33.7425 -9.66320312 34.485 -9.97265625 35.25 C-11 37 -11 37 -14 38 C-12.55538467 33.37438442 -10.69968395 29.02355011 -8.6875 24.625 C-5.08776925 16.61089742 -2.43305693 8.43160743 0 0 Z " fill="#000000" transform="translate(215,50)"/>
<path d="M0 0 C1.29519666 2.98425429 0.92796352 4.22789722 -0.07421875 7.3984375 C-0.60286992 8.72761758 -1.14118761 10.05298089 -1.6875 11.375 C-4.63088346 18.81163959 -6.94514109 26.26406057 -9 34 C-9.66 34 -10.32 34 -11 34 C-12.22889052 30.31332843 -11.29697835 28.71092801 -9.890625 25.21582031 C-9.02629533 23.06542118 -8.25105129 20.90316833 -7.5 18.7109375 C-7.2525 17.99679688 -7.005 17.28265625 -6.75 16.546875 C-6.24758891 15.09197621 -5.74761059 13.63623517 -5.25 12.1796875 C-3.77646308 7.94326885 -2.10662611 3.97500283 0 0 Z " fill="#000000" transform="translate(225,210)"/>
<path d="M0 0 C2.0140956 3.0211434 2.26836596 3.80660017 2.4140625 7.23046875 C2.45273438 8.03291016 2.49140625 8.83535156 2.53125 9.66210938 C2.5621875 10.49548828 2.593125 11.32886719 2.625 12.1875 C2.66367188 13.03248047 2.70234375 13.87746094 2.7421875 14.74804688 C2.83636279 16.83167524 2.91926675 18.91580753 3 21 C2.01 21.33 1.02 21.66 0 22 C-2.46153846 14.15384615 -2.46153846 14.15384615 -2 10 C-1.34 9.01 -0.68 8.02 0 7 C-0.66 7 -1.32 7 -2 7 C-1.67 6.01 -1.34 5.02 -1 4 C-0.65772583 2.66893378 -0.32248257 1.33599921 0 0 Z " fill="#000000" transform="translate(190,216)"/>
<path d="M0 0 C2 1 2 1 2.61328125 2.6484375 C3.10887841 5.66206874 3.17026637 8.57120039 3.1875 11.625 C3.20167969 12.77226563 3.21585938 13.91953125 3.23046875 15.1015625 C3 18 3 18 1 20 C-0.13495819 16.59512543 -0.36402865 13.57903569 -0.625 10 C-0.72039062 8.7625 -0.81578125 7.525 -0.9140625 6.25 C-1 3 -1 3 0 0 Z " fill="#000000" transform="translate(238,58)"/>
<path d="M0 0 C0.66 0.66 1.32 1.32 2 2 C-0.64 6.62 -3.28 11.24 -6 16 C-6.66 16 -7.32 16 -8 16 C-6.42986223 10.03347646 -3.24970218 5.17090975 0 0 Z " fill="#000000" transform="translate(201,152)"/>
<path d="M0 0 C0.99 0.33 1.98 0.66 3 1 C0.33333333 4.33333333 -2.33333333 7.66666667 -5 11 C-5.66 10.67 -6.32 10.34 -7 10 C-4.75421558 6.59260295 -2.48862878 3.23521742 0 0 Z " fill="#000000" transform="translate(225,179)"/>
<path d="M0 0 C0.66 0.66 1.32 1.32 2 2 C0.68 4.64 -0.64 7.28 -2 10 C-2.99 10 -3.98 10 -5 10 C-3.35 6.7 -1.7 3.4 0 0 Z " fill="#000000" transform="translate(216,92)"/>
<path d="M0 0 C0.66 0.33 1.32 0.66 2 1 C0.64978174 5.41889613 -1.26115668 7.34345343 -5 10 C-3.66511872 6.40608886 -2.03977277 3.24509304 0 0 Z " fill="#000000" transform="translate(200,87)"/>
<path d="M0 0 C0.66 0 1.32 0 2 0 C1.5020163 3.73487777 1.12508244 5.81237635 -1 9 C-2.25541557 5.23375329 -1.37061958 3.62811066 0 0 Z " fill="#000000" transform="translate(191,170)"/>
</svg>